# xmcd CD database file
#
# Track frame offsets:
#	180
#	12553
#	24599
#	36614
#	51811
#	65764
#	78520
#	90536
#	105032
#	120734
#	134450
#	149145
#	164025
#	177938
#
# Disc length: 2546 seconds
#
# Revision: 0
# Processed by: cddbd v1.5.2PL0 Copyright (c) Steve Scherf et al.
# Submitted via: CDex 1.70beta2
#
DISCID=cb09f00e
DTITLE=Caribbean Star - Havana Nights
DYEAR=2005
DGENRE=Salsa
TTITLE0=Carlos Molina Caribean Star (Rumba)
TTITLE1=Antobal's Cuban La conga (Havana's calling me)
TTITLE2=Xavier Cugat Havana's calling me
TTITLE3=Che Belen Bellas Cubana
TTITLE4=Casino del la playa ochester Los Bomberos
TTITLE5=Xvier Cugat Rumba Rumbero
TTITLE6=Los Amigos Panamericanos Featuring Rhumba Jubille
TTITLE7=Xavier Cugat And His Orchester Havana for a Night
TTITLE8=Rafael Munoz Besame
TTITLE9=Billo's Caracas Boys Las Bellas Noches de Maiquetia
TTITLE10=Bobby Cabo El Silbido
TTITLE11=Xavier Cugat and his Orchester Miami Beach Rumba
TTITLE12=Edmundo ROs and His Orchester Coaxx Me A Little Bit
TTITLE13=Cesar Cocepcion Bendito
EXTD=YEAR: 2005
EXTT0=
EXTT1=
EXTT2=
EXTT3=
EXTT4=
EXTT5=
EXTT6=
EXTT7=
EXTT8=
EXTT9=
EXTT10=
EXTT11=
EXTT12=
EXTT13=
PLAYORDER=
